<mxfile host="app.diagrams.net" agent="Mozilla/5.0 (Windows NT 10.0; Win64; x64) AppleWebKit/537.36 (KHTML, like Gecko) Chrome/131.0.0.0 Safari/537.36" version="26.0.2">
  <diagram name="Halaman-1" id="O-7rj1su2MSmn-E-Fnuk">
    <mxGraphModel dx="880" dy="468" grid="1" gridSize="10" guides="1" tooltips="1" connect="1" arrows="1" fold="1" page="1" pageScale="1" pageWidth="827" pageHeight="1169" math="0" shadow="0">
      <root>
        <mxCell id="0" />
        <mxCell id="1" parent="0" />
        <mxCell id="0Y15mE2m5U589_L7-pyS-5" value="Start" style="strokeWidth=2;html=1;shape=mxgraph.flowchart.start_1;whiteSpace=wrap;" vertex="1" parent="1">
          <mxGeometry x="349" y="70" width="116.67" height="70" as="geometry" />
        </mxCell>
        <mxCell id="0Y15mE2m5U589_L7-pyS-7" value="" style="endArrow=classic;html=1;rounded=0;" edge="1" parent="1" source="0Y15mE2m5U589_L7-pyS-5">
          <mxGeometry width="50" height="50" relative="1" as="geometry">
            <mxPoint x="390" y="270" as="sourcePoint" />
            <mxPoint x="407.0957142857144" y="180" as="targetPoint" />
          </mxGeometry>
        </mxCell>
        <mxCell id="0Y15mE2m5U589_L7-pyS-9" value="Login" style="rhombus;whiteSpace=wrap;html=1;" vertex="1" parent="1">
          <mxGeometry x="352.34" y="180" width="110" height="110" as="geometry" />
        </mxCell>
        <mxCell id="0Y15mE2m5U589_L7-pyS-13" value="" style="endArrow=classic;html=1;rounded=0;" edge="1" parent="1">
          <mxGeometry width="50" height="50" relative="1" as="geometry">
            <mxPoint x="462.34000000000003" y="240" as="sourcePoint" />
            <mxPoint x="550" y="240" as="targetPoint" />
          </mxGeometry>
        </mxCell>
        <mxCell id="0Y15mE2m5U589_L7-pyS-14" value="Admin" style="edgeLabel;html=1;align=center;verticalAlign=middle;resizable=0;points=[];" vertex="1" connectable="0" parent="0Y15mE2m5U589_L7-pyS-13">
          <mxGeometry x="0.4752" y="-3" relative="1" as="geometry">
            <mxPoint x="-27" y="-3" as="offset" />
          </mxGeometry>
        </mxCell>
        <mxCell id="0Y15mE2m5U589_L7-pyS-16" value="Membuat list dosen" style="shape=parallelogram;perimeter=parallelogramPerimeter;whiteSpace=wrap;html=1;fixedSize=1;" vertex="1" parent="1">
          <mxGeometry x="540" y="210" width="120" height="60" as="geometry" />
        </mxCell>
        <mxCell id="0Y15mE2m5U589_L7-pyS-17" value="List Dosen" style="shape=document;whiteSpace=wrap;html=1;boundedLbl=1;" vertex="1" parent="1">
          <mxGeometry x="530" y="360" width="120" height="80" as="geometry" />
        </mxCell>
        <mxCell id="0Y15mE2m5U589_L7-pyS-22" value="" style="endArrow=classic;html=1;rounded=0;" edge="1" parent="1" target="0Y15mE2m5U589_L7-pyS-17">
          <mxGeometry width="50" height="50" relative="1" as="geometry">
            <mxPoint x="590" y="270" as="sourcePoint" />
            <mxPoint x="440" y="320" as="targetPoint" />
            <Array as="points">
              <mxPoint x="590" y="270" />
            </Array>
          </mxGeometry>
        </mxCell>
      </root>
    </mxGraphModel>
  </diagram>
</mxfile>
